<svg width="24" height="24" viewBox="0 0 24 24" fill="none" xmlns="http://www.w3.org/2000/svg">
<mask id="mask0_318_736" style="mask-type:alpha" maskUnits="userSpaceOnUse" x="0" y="0" width="24" height="24">
<rect width="24" height="24" fill="#D9D9D9"/>
</mask>
<g mask="url(#mask0_318_736)">
<path d="M7.8655 17.25H9.36525V12.5H7.8655V17.25ZM15.6348 17.25H17.1345V7.5H15.6348V17.25ZM11.75 17.25H13.25V14.5H11.75V17.25ZM11.75 12.5H13.25V10.5H11.75V12.5ZM5.80775 21C5.30258 21 4.875 20.825 4.525 20.475C4.175 20.125 4 19.6974 4 19.1923V5.80775C4 5.30258 4.175 4.875 4.525 4.525C4.875 4.175 5.30258 4 5.80775 4H19.1923C19.6974 4 20.125 4.175 20.475 4.525C20.825 4.875 21 5.30258 21 5.80775V19.1923C21 19.6974 20.825 20.125 20.475 20.475C20.125 20.825 19.6974 21 19.1923 21H5.80775ZM5.80775 19.5H19.1923C19.2692 19.5 19.3398 19.4679 19.4038 19.4038C19.4679 19.3398 19.5 19.2692 19.5 19.1923V5.80775C19.5 5.73075 19.4679 5.66025 19.4038 5.59625C19.3398 5.53208 19.2692 5.5 19.1923 5.5H5.80775C5.73075 5.5 5.66025 5.53208 5.59625 5.59625C5.53208 5.66025 5.5 5.73075 5.5 5.80775V19.1923C5.5 19.2692 5.53208 19.3398 5.59625 19.4038C5.66025 19.4679 5.73075 19.5 5.80775 19.5Z" fill="#CECECE"/>
</g>
</svg>
