<svg width="24" height="24" viewBox="0 0 24 24" fill="none" xmlns="http://www.w3.org/2000/svg">
<mask id="mask0_318_740" style="mask-type:alpha" maskUnits="userSpaceOnUse" x="0" y="0" width="24" height="24">
<rect width="24" height="24" fill="#D9D9D9"/>
</mask>
<g mask="url(#mask0_318_740)">
<path d="M2.50002 9.48096V5.53871C2.50002 5.03354 2.67502 4.60596 3.02502 4.25596C3.37502 3.90596 3.8026 3.73096 4.30777 3.73096H19.6923C20.1974 3.73096 20.625 3.90596 20.975 4.25596C21.325 4.60596 21.5 5.03354 21.5 5.53871V9.48096H20V5.53871C20 5.46171 19.9679 5.39121 19.9038 5.32721C19.8398 5.26304 19.7693 5.23096 19.6923 5.23096H4.30777C4.23077 5.23096 4.16027 5.26304 4.09627 5.32721C4.0321 5.39121 4.00002 5.46171 4.00002 5.53871V9.48096H2.50002ZM4.30777 17.731C3.8026 17.731 3.37502 17.556 3.02502 17.206C2.67502 16.856 2.50002 16.4284 2.50002 15.9232V10.981H4.00002V15.9232C4.00002 16.0002 4.0321 16.0708 4.09627 16.135C4.16027 16.199 4.23077 16.231 4.30777 16.231H19.6923C19.7693 16.231 19.8398 16.199 19.9038 16.135C19.9679 16.0708 20 16.0002 20 15.9232V10.981H21.5V15.9232C21.5 16.4284 21.325 16.856 20.975 17.206C20.625 17.556 20.1974 17.731 19.6923 17.731H4.30777ZM1.38477 20.231V18.731H22.6153V20.231H1.38477ZM2.50002 10.981V9.48096H8.00002C8.13852 9.48096 8.27027 9.51812 8.39527 9.59246C8.52027 9.66696 8.61477 9.76829 8.67877 9.89646L10.075 12.6735L13.352 6.86571C13.416 6.74771 13.5054 6.65729 13.6203 6.59446C13.7349 6.53162 13.8615 6.50021 14 6.50021C14.1385 6.50021 14.2703 6.53162 14.3953 6.59446C14.5203 6.65729 14.6148 6.75796 14.6788 6.89646L15.9713 9.48096H21.5V10.981H15.5963C15.4321 10.981 15.2747 10.9384 15.124 10.8532C14.9733 10.7679 14.8596 10.6431 14.7828 10.479L13.95 8.80796L10.6635 14.5965C10.5993 14.7246 10.5048 14.8207 10.3798 14.8847C10.2548 14.9489 10.123 14.981 9.98452 14.981C9.84618 14.981 9.7171 14.9438 9.59727 14.8695C9.47727 14.7951 9.38527 14.6939 9.32127 14.5657L7.52877 10.981H2.50002Z" fill="#CECECE"/>
</g>
</svg>
