<svg width="24" height="24" viewBox="0 0 24 24" fill="none" xmlns="http://www.w3.org/2000/svg">
<mask id="mask0_318_732" style="mask-type:alpha" maskUnits="userSpaceOnUse" x="0" y="0" width="24" height="24">
<rect width="24" height="24" fill="#D9D9D9"/>
</mask>
<g mask="url(#mask0_318_732)">
<path d="M18.827 8.84625C17.9313 8.84625 17.1536 8.56925 16.4938 8.01525C15.8338 7.46142 15.416 6.764 15.2405 5.923H8.7345C8.58967 6.63583 8.26308 7.248 7.75475 7.7595C7.24642 8.27117 6.63583 8.59942 5.923 8.74425V15.2405C6.764 15.416 7.46142 15.8338 8.01525 16.4938C8.56925 17.1536 8.84625 17.9313 8.84625 18.827C8.84625 19.8437 8.48817 20.71 7.772 21.426C7.056 22.142 6.18967 22.5 5.173 22.5C4.15633 22.5 3.29 22.142 2.574 21.426C1.858 20.71 1.5 19.8437 1.5 18.827C1.5 17.9313 1.77692 17.1536 2.33075 16.4938C2.88458 15.8338 3.582 15.416 4.423 15.2405V8.74425C3.582 8.56858 2.88458 8.15158 2.33075 7.49325C1.77692 6.83492 1.5 6.0615 1.5 5.173C1.5 4.15633 1.85875 3.29 2.57625 2.574C3.29358 1.858 4.156 1.5 5.1635 1.5C6.052 1.5 6.82542 1.77692 7.48375 2.33075C8.14208 2.88458 8.559 3.582 8.7345 4.423H15.2405C15.416 3.582 15.8338 2.88458 16.4938 2.33075C17.1536 1.77692 17.9313 1.5 18.827 1.5C19.837 1.5 20.7017 1.85967 21.421 2.579C22.1403 3.29833 22.5 4.163 22.5 5.173C22.5 6.18967 22.1403 7.056 21.421 7.772C20.7017 8.48817 19.837 8.84625 18.827 8.84625ZM5.167 21.0095C5.77233 21.0095 6.28683 20.7935 6.7105 20.3615C7.13433 19.9295 7.34625 19.42 7.34625 18.833C7.34625 18.2277 7.13433 17.7132 6.7105 17.2895C6.28683 16.8657 5.77233 16.6538 5.167 16.6538C4.58 16.6538 4.0705 16.8657 3.6385 17.2895C3.2065 17.7132 2.9905 18.2277 2.9905 18.833C2.9905 19.42 3.2065 19.9295 3.6385 20.3615C4.0705 20.7935 4.58 21.0095 5.167 21.0095ZM5.167 7.35575C5.77233 7.35575 6.28683 7.14192 6.7105 6.71425C7.13433 6.28658 7.34625 5.7725 7.34625 5.172C7.34625 4.5715 7.13433 4.05933 6.7105 3.6355C6.28683 3.21183 5.77233 3 5.167 3C4.58 3 4.0705 3.21183 3.6385 3.6355C3.2065 4.05933 2.9905 4.5715 2.9905 5.172C2.9905 5.7725 3.2065 6.28658 3.6385 6.71425C4.0705 7.14192 4.58 7.35575 5.167 7.35575ZM18.827 22.5C17.8103 22.5 16.944 22.142 16.228 21.426C15.5118 20.71 15.1538 19.846 15.1538 18.834C15.1538 17.822 15.5118 16.9556 16.228 16.2348C16.944 15.5141 17.8103 15.1538 18.827 15.1538C19.8437 15.1538 20.71 15.5141 21.426 16.2348C22.142 16.9556 22.5 17.822 22.5 18.834C22.5 19.846 22.142 20.71 21.426 21.426C20.71 22.142 19.8437 22.5 18.827 22.5ZM18.828 21.0095C19.4285 21.0095 19.9407 20.7935 20.3645 20.3615C20.7882 19.9295 21 19.42 21 18.833C21 18.2277 20.7882 17.7132 20.3645 17.2895C19.9407 16.8657 19.4285 16.6538 18.828 16.6538C18.2275 16.6538 17.7134 16.8657 17.2858 17.2895C16.8581 17.7132 16.6443 18.2277 16.6443 18.833C16.6443 19.42 16.8581 19.9295 17.2858 20.3615C17.7134 20.7935 18.2275 21.0095 18.828 21.0095ZM18.828 7.35575C19.4285 7.35575 19.9407 7.14192 20.3645 6.71425C20.7882 6.28658 21 5.7725 21 5.172C21 4.5715 20.7882 4.05933 20.3645 3.6355C19.9407 3.21183 19.4285 3 18.828 3C18.2275 3 17.7134 3.21183 17.2858 3.6355C16.8581 4.05933 16.6443 4.5715 16.6443 5.172C16.6443 5.7725 16.8581 6.28658 17.2858 6.71425C17.7134 7.14192 18.2275 7.35575 18.828 7.35575Z" fill="#CECECE"/>
</g>
</svg>
