<svg width="16" height="16" viewBox="0 0 16 16" fill="none" xmlns="http://www.w3.org/2000/svg">
<mask id="mask0_534_536" style="mask-type:alpha" maskUnits="userSpaceOnUse" x="0" y="0" width="16" height="16">
<rect width="16" height="16" fill="#D9D9D9"/>
</mask>
<g mask="url(#mask0_534_536)">
<path d="M7.73122 10.8077C7.879 10.8077 8.00356 10.7571 8.10489 10.6558C8.20611 10.5545 8.25672 10.4299 8.25672 10.282C8.25672 10.1342 8.20611 10.0097 8.10489 9.90833C8.00356 9.807 7.879 9.75633 7.73122 9.75633C7.58334 9.75633 7.45872 9.807 7.35739 9.90833C7.25617 10.0097 7.20556 10.1342 7.20556 10.282C7.20556 10.4299 7.25617 10.5545 7.35739 10.6558C7.45872 10.7571 7.58334 10.8077 7.73122 10.8077ZM7.38756 8.6H8.03122C8.03978 8.45389 8.0545 8.32694 8.07539 8.21917C8.09628 8.1115 8.1345 8.00511 8.19006 7.9C8.24561 7.79489 8.31722 7.68956 8.40489 7.584C8.49245 7.47845 8.60122 7.36072 8.73122 7.23083C9.05167 6.91028 9.28389 6.63228 9.42789 6.39683C9.572 6.16139 9.64406 5.89406 9.64406 5.59483C9.64406 5.07439 9.46539 4.65494 9.10806 4.3365C8.75084 4.01817 8.3145 3.859 7.79906 3.859C7.32472 3.859 6.91639 3.9855 6.57406 4.2385C6.23184 4.4915 5.98161 4.79489 5.82339 5.14867L6.43622 5.4025C6.54822 5.13672 6.70806 4.91644 6.91572 4.74167C7.1235 4.56689 7.40428 4.4795 7.75806 4.4795C8.17772 4.4795 8.48972 4.59422 8.69406 4.82367C8.89828 5.05322 9.00039 5.31411 9.00039 5.60633C9.00039 5.82944 8.93928 6.03372 8.81706 6.21917C8.69484 6.40472 8.52345 6.59961 8.30289 6.80383C8.13967 6.95939 7.99972 7.10789 7.88306 7.24933C7.76639 7.39078 7.66917 7.532 7.59139 7.673C7.51361 7.81411 7.46022 7.95922 7.43122 8.10833C7.40211 8.25744 7.38756 8.42133 7.38756 8.6ZM7.73372 14.3847L6.01572 12.6667H3.47739C3.1705 12.6667 2.91428 12.5639 2.70872 12.3583C2.50317 12.1528 2.40039 11.8966 2.40039 11.5897V3.077C2.40039 2.77011 2.50317 2.51389 2.70872 2.30833C2.91428 2.10278 3.1705 2 3.47739 2H11.9901C12.2969 2 12.5532 2.10278 12.7587 2.30833C12.9643 2.51389 13.0671 2.77011 13.0671 3.077V11.5897C13.0671 11.8966 12.9643 12.1528 12.7587 12.3583C12.5532 12.5639 12.2969 12.6667 11.9901 12.6667H9.45172L7.73372 14.3847ZM3.47739 12H6.29272L7.73372 13.441L9.17472 12H11.9901C12.1097 12 12.2081 11.9616 12.2851 11.8847C12.3619 11.8077 12.4004 11.7093 12.4004 11.5897V3.077C12.4004 2.95733 12.3619 2.859 12.2851 2.782C12.2081 2.70511 12.1097 2.66667 11.9901 2.66667H3.47739C3.35772 2.66667 3.25939 2.70511 3.18239 2.782C3.1055 2.859 3.06706 2.95733 3.06706 3.077V11.5897C3.06706 11.7093 3.1055 11.8077 3.18239 11.8847C3.25939 11.9616 3.35772 12 3.47739 12Z" fill="#CECECE"/>
</g>
</svg>
