<svg width="24" height="24" viewBox="0 0 24 24" fill="none" xmlns="http://www.w3.org/2000/svg">
<mask id="mask0_318_715" style="mask-type:alpha" maskUnits="userSpaceOnUse" x="0" y="0" width="24" height="24">
<rect width="24" height="24" fill="#D9D9D9"/>
</mask>
<g mask="url(#mask0_318_715)">
<path d="M6.10021 11.4421L5.89646 10.2499C5.63879 10.1729 5.39679 10.0741 5.17046 9.95362C4.94412 9.83312 4.72971 9.68053 4.52721 9.49587L3.37521 9.90762L2.60596 8.63062L3.55421 7.82287C3.48237 7.55503 3.44646 7.2807 3.44646 6.99987C3.44646 6.71903 3.48237 6.4447 3.55421 6.17687L2.60596 5.36912L3.37521 4.09212L4.52721 4.50387C4.72971 4.3192 4.94412 4.16662 5.17046 4.04612C5.39679 3.92562 5.63879 3.82687 5.89646 3.74987L6.10021 2.55762H7.60021L7.80396 3.74987C8.06162 3.82687 8.30362 3.92562 8.52996 4.04612C8.75629 4.16662 8.97071 4.3192 9.17321 4.50387L10.3252 4.09212L11.0945 5.36912L10.1462 6.17687C10.218 6.4447 10.254 6.71903 10.254 6.99987C10.254 7.2807 10.218 7.55503 10.1462 7.82287L11.0945 8.63062L10.3252 9.90762L9.17321 9.49587C8.97071 9.68053 8.75629 9.83312 8.52996 9.95362C8.30362 10.0741 8.06162 10.1729 7.80396 10.2499L7.60021 11.4421H6.10021ZM6.85021 9.07687C7.42587 9.07687 7.91596 8.87462 8.32046 8.47012C8.72496 8.06562 8.92721 7.57553 8.92721 6.99987C8.92721 6.4242 8.72496 5.93412 8.32046 5.52962C7.91596 5.12512 7.42587 4.92287 6.85021 4.92287C6.27454 4.92287 5.78446 5.12512 5.37996 5.52962C4.97546 5.93412 4.77321 6.4242 4.77321 6.99987C4.77321 7.57553 4.97546 8.06562 5.37996 8.47012C5.78446 8.87462 6.27454 9.07687 6.85021 9.07687ZM15.2042 22.0094L14.8887 20.4286C14.522 20.3543 14.181 20.2255 13.8657 20.0421C13.5502 19.8588 13.2662 19.6306 13.0137 19.3576L11.5235 19.8729L10.5177 18.1651L11.733 17.1306C11.6226 16.7601 11.5675 16.3832 11.5675 15.9999C11.5675 15.6165 11.6226 15.2396 11.733 14.8691L10.5177 13.8346L11.5235 12.1269L13.0137 12.6421C13.2662 12.3691 13.5502 12.141 13.8657 11.9576C14.181 11.7743 14.522 11.6455 14.8887 11.5711L15.2042 9.99037H17.1962L17.5117 11.5711C17.8784 11.6455 18.2194 11.7743 18.5347 11.9576C18.8502 12.141 19.1342 12.3691 19.3867 12.6421L20.877 12.1269L21.8827 13.8346L20.6675 14.8691C20.7778 15.2396 20.833 15.6165 20.833 15.9999C20.833 16.3832 20.7778 16.7601 20.6675 17.1306L21.8827 18.1651L20.877 19.8729L19.3867 19.3576C19.1342 19.6306 18.8502 19.8588 18.5347 20.0421C18.2194 20.2255 17.8784 20.3543 17.5117 20.4286L17.1962 22.0094H15.2042ZM16.2002 18.9999C17.0335 18.9999 17.7419 18.7082 18.3252 18.1249C18.9085 17.5415 19.2002 16.8332 19.2002 15.9999C19.2002 15.1665 18.9085 14.4582 18.3252 13.8749C17.7419 13.2915 17.0335 12.9999 16.2002 12.9999C15.3669 12.9999 14.6585 13.2915 14.0752 13.8749C13.4919 14.4582 13.2002 15.1665 13.2002 15.9999C13.2002 16.8332 13.4919 17.5415 14.0752 18.1249C14.6585 18.7082 15.3669 18.9999 16.2002 18.9999Z" fill="#CECECE"/>
</g>
</svg>
