<svg width="24" height="24" viewBox="0 0 24 24" fill="none" xmlns="http://www.w3.org/2000/svg">
<mask id="mask0_318_724" style="mask-type:alpha" maskUnits="userSpaceOnUse" x="0" y="0" width="24" height="24">
<rect width="24" height="24" fill="#D9D9D9"/>
</mask>
<g mask="url(#mask0_318_724)">
<path d="M3.19227 18.5C2.68727 18.5 2.25977 18.325 1.90977 17.975C1.55977 17.625 1.38477 17.1974 1.38477 16.6923V7.30775C1.38477 6.80258 1.55977 6.375 1.90977 6.025C2.25977 5.675 2.68727 5.5 3.19227 5.5H12.577C13.082 5.5 13.5095 5.675 13.8595 6.025C14.2095 6.375 14.3845 6.80258 14.3845 7.30775V16.6923C14.3845 17.1974 14.2095 17.625 13.8595 17.975C13.5095 18.325 13.082 18.5 12.577 18.5H3.19227ZM3.19227 17H12.577C12.6538 17 12.7243 16.9679 12.7885 16.9038C12.8525 16.8398 12.8845 16.7692 12.8845 16.6923V7.30775C12.8845 7.23075 12.8525 7.16025 12.7885 7.09625C12.7243 7.03208 12.6538 7 12.577 7H3.19227C3.11543 7 3.04493 7.03208 2.98077 7.09625C2.9166 7.16025 2.88452 7.23075 2.88452 7.30775V16.6923C2.88452 16.7692 2.9166 16.8398 2.98077 16.9038C3.04493 16.9679 3.11543 17 3.19227 17ZM17 18.5V5.5H18.5V18.5H17ZM21.1155 18.5V5.5H22.6153V18.5H21.1155Z" fill="#CECECE"/>
</g>
</svg>
