<svg width="23" height="23" viewBox="0 0 23 23" fill="none" xmlns="http://www.w3.org/2000/svg">
<g clip-path="url(#clip0_325_866)">
<path d="M15.3158 6.41542L15.3158 15.0798C15.3158 16.1413 14.8941 17.1593 14.1436 17.9098C13.393 18.6604 12.375 19.0821 11.3136 19.0821C10.2521 19.0821 9.23413 18.6604 8.48357 17.9098C7.73301 17.1593 7.31134 16.1413 7.31134 15.0798L7.31134 6.41542C7.31134 5.70778 7.59245 5.02913 8.09283 4.52876C8.5932 4.02838 9.27186 3.74727 9.97949 3.74727C10.6871 3.74727 11.3658 4.02838 11.8662 4.52875C12.3665 5.02913 12.6476 5.70778 12.6476 6.41542L12.6429 15.0846C12.6429 15.4384 12.5024 15.7777 12.2522 16.0279C12.002 16.2781 11.6627 16.4186 11.3089 16.4186C10.955 16.4186 10.6157 16.2781 10.3655 16.0279C10.1153 15.7777 9.97478 15.4384 9.97478 15.0846L9.97949 7.08482" stroke="#CECECE" stroke-linecap="round" stroke-linejoin="round"/>
</g>
<defs>
<clipPath id="clip0_325_866">
<rect width="16" height="16" fill="white" transform="translate(0 11.3135) rotate(-45)"/>
</clipPath>
</defs>
</svg>
